<svg xmlns="http://www.w3.org/2000/svg" viewBox="0 0 33 33" width="48" height="48">
	<style>
		tspan { white-space:pre }
		.shp0 { fill: #ffffff } 
	</style>
	<g id="Layer">
		<path id="Layer" class="shp0" d="M16.32 32.63C16.04 32.63 15.82 32.41 15.82 32.13L15.82 0.5C15.82 0.22 16.04 0 16.32 0C16.59 0 16.82 0.22 16.82 0.5L16.82 32.13C16.82 32.41 16.59 32.63 16.32 32.63Z" />
		<path id="Layer" class="shp0" d="M16.32 32.63L16.32 32.63C16.18 32.63 16.05 32.58 15.96 32.49L3.43 19.95C3.23 19.76 3.23 19.44 3.43 19.24C3.62 19.05 3.94 19.05 4.13 19.24L16.31 31.43L28.5 19.24C28.69 19.05 29.01 19.05 29.2 19.24C29.4 19.44 29.4 19.76 29.2 19.95L16.67 32.49C16.57 32.58 16.45 32.63 16.32 32.63Z" />
	</g>
	<g id="Layer">
	</g>
	<g id="Layer">
	</g>
	<g id="Layer">
	</g>
	<g id="Layer">
	</g>
	<g id="Layer">
	</g>
	<g id="Layer">
	</g>
	<g id="Layer">
	</g>
	<g id="Layer">
	</g>
	<g id="Layer">
	</g>
	<g id="Layer">
	</g>
	<g id="Layer">
	</g>
	<g id="Layer">
	</g>
	<g id="Layer">
	</g>
	<g id="Layer">
	</g>
	<g id="Layer">
	</g>
</svg>