<?xml version="1.0" encoding="utf-8"?>
<!-- Generator: Adobe Illustrator 23.0.1, SVG Export Plug-In . SVG Version: 6.00 Build 0)  -->
<svg version="1.1" xmlns="http://www.w3.org/2000/svg" xmlns:xlink="http://www.w3.org/1999/xlink" x="0px" y="0px"
	 viewBox="0 0 56.9 58.4" style="enable-background:new 0 0 56.9 58.4;" xml:space="preserve">
<style type="text/css">
	.st0{display:none;}
	.st1{display:inline;opacity:0.7;}
	.st2{fill:#D6EAF5;}
</style>
<g id="Bg" class="st0">
</g>
<g id="Object">
	<g>
		<path d="M34.9,43.7c0.3,0.3,0.8,0.3,1.1,0c1.8-2,6.8-8,6.8-14.3c0-3.7-1.1-15.7-14.9-15.7c-10.3,0-15.1,4.8-15.1,15.1
			c0,7.2,5.6,12.9,7.5,14.6c0.2,0.2,0.3,0.4,0.3,0.6v6c0,0.5,0.4,0.8,0.8,0.8h13.1v6H22c-0.4,0-0.8,0.4-0.8,0.8v0
			c0,0.4,0.4,0.8,0.8,0.8h13.3c0.5,0,0.8-0.4,0.8-0.8v-7.5c0-0.5-0.4-0.8-0.8-0.8h-6.2V36.5c0.2,0,6.4-6.3,6.4-6.3
			c0.3-0.3,0.3-0.8,0-1.1c-0.3-0.3-0.8-0.3-1.1,0l-6,6c0,0,0,0,0,0l-7.8-7.5c-0.3-0.3-0.8-0.3-1.1,0l0,0c-0.3,0.3-0.3,0.8,0,1.1
			l7.7,7.3c0.2,0.2,0.2,0.4,0.2,0.6v12.4h-5.2v-6.3l-0.3-0.2c-0.1-0.1-7.5-6.2-7.5-13.9c0-9.3,4.2-13.5,13.5-13.5
			c12,0,13.3,9.9,13.3,14.1c0,5.8-4.7,11.4-6.4,13.2C34.6,42.9,34.6,43.3,34.9,43.7z"/>
		<path d="M28,7.3c0.4,0,0.8-0.4,0.8-0.8V0.9c0-0.4-0.4-0.8-0.8-0.8c-0.4,0-0.8,0.4-0.8,0.8v5.6C27.2,6.9,27.5,7.3,28,7.3z"/>
		<path d="M56.7,0.2c-0.3-0.3-0.8-0.3-1.1,0L42.7,13.1c-0.3,0.3-0.3,0.8,0,1.1c0.3,0.3,0.8,0.3,1.1,0L56.7,1.4C57,1,57,0.5,56.7,0.2
			z"/>
		<path d="M14.2,14.2c0.3-0.3,0.3-0.8,0-1.1L1.4,0.2C1-0.1,0.5-0.1,0.2,0.2c-0.3,0.3-0.3,0.8,0,1.1l12.9,12.9
			C13.4,14.6,13.9,14.6,14.2,14.2z"/>
	</g>
</g>
</svg>
