<?xml version="1.0" encoding="utf-8"?>
<!-- Generator: Adobe Illustrator 23.0.1, SVG Export Plug-In . SVG Version: 6.00 Build 0)  -->
<svg version="1.1" xmlns="http://www.w3.org/2000/svg" xmlns:xlink="http://www.w3.org/1999/xlink" x="0px" y="0px"
	 viewBox="0 0 38.2 57" style="enable-background:new 0 0 38.2 57;" xml:space="preserve">
<style type="text/css">
	.st0{display:none;}
	.st1{display:inline;opacity:0.7;}
	.st2{fill:#D6EAF5;}
</style>
<g id="Bg" class="st0">
</g>
<g id="Object">
	<g>
		<path d="M19.1,29.1c-0.2,0-0.4-0.1-0.5-0.2l-14-13.1c-0.2-0.2-0.3-0.4-0.3-0.6V4.8C4.3,4.3,4.6,4,5.1,4h28c0.4,0,0.8,0.4,0.8,0.8
			v10.5c0,0.2-0.1,0.4-0.3,0.6l-14,13.1C19.5,29.1,19.3,29.1,19.1,29.1z M5.9,14.9l13.2,12.3l13.2-12.3V5.6H5.9V14.9z M33.1,15.3
			L33.1,15.3L33.1,15.3z"/>
		<path d="M33.1,53h-28c-0.4,0-0.8-0.4-0.8-0.8v-11c0-0.2,0.1-0.4,0.3-0.6l14-13.1c0.3-0.3,0.8-0.3,1.1,0l14,13.1
			c0.2,0.2,0.3,0.4,0.3,0.6v11C33.9,52.7,33.5,53,33.1,53z M5.9,51.4h26.4v-9.9L19.1,29.2L5.9,41.6V51.4z"/>
		<path d="M37.4,1.6H0.8C0.4,1.6,0,1.2,0,0.8C0,0.4,0.4,0,0.8,0h36.6c0.4,0,0.8,0.4,0.8,0.8C38.2,1.2,37.8,1.6,37.4,1.6z"/>
		<path d="M37.4,57H0.8C0.4,57,0,56.7,0,56.2c0-0.4,0.4-0.8,0.8-0.8h36.6c0.4,0,0.8,0.4,0.8,0.8C38.2,56.7,37.8,57,37.4,57z"/>
		<path d="M29.4,10.6h-4.9c-0.4,0-0.8-0.4-0.8-0.8S24,9,24.5,9h4.9c0.4,0,0.8,0.4,0.8,0.8S29.8,10.6,29.4,10.6z"/>
	</g>
</g>
</svg>
