<?xml version="1.0" encoding="utf-8"?>
<!-- Generator: Adobe Illustrator 23.0.1, SVG Export Plug-In . SVG Version: 6.00 Build 0)  -->
<svg version="1.1" xmlns="http://www.w3.org/2000/svg" xmlns:xlink="http://www.w3.org/1999/xlink" x="0px" y="0px"
	 viewBox="0 0 57.3 56.4" style="enable-background:new 0 0 57.3 56.4;" xml:space="preserve">
<style type="text/css">
	.st0{display:none;}
	.st1{display:inline;opacity:0.7;}
	.st2{fill:#D6EAF5;}
</style>
<g id="Bg" class="st0">
</g>
<g id="Object">
	<g>
		<g>
			<path d="M28.6,56.4c-0.2,0-0.4-0.1-0.5-0.2C27,55.3,0,33.4,0,15.5C0,7.7,4,1.9,10.5,0.4c6.8-1.6,14.1,2,18.1,8.8
				c4.4-7.8,12.3-10,18-8.7c7.9,1.8,10.7,8.9,10.7,15.1c0,5.9-2.9,12.8-8.7,20.6c-0.3,0.4-0.8,0.4-1.1,0.2c-0.4-0.3-0.4-0.8-0.2-1.1
				c5.6-7.5,8.4-14.1,8.4-19.6c0-7.1-3.5-12.2-9.4-13.5c-5.4-1.2-13,1.1-16.9,9.2c-0.1,0.3-0.4,0.4-0.7,0.5c-0.3,0-0.6-0.2-0.7-0.4
				c-2.9-5.8-9.5-11.1-17.1-9.3C5.1,3.3,1.6,8.4,1.6,15.5c0,15.8,23.3,36,27.1,39.1c1.6-1.3,6.6-5.6,11.8-11.3
				c0.3-0.3,0.8-0.3,1.1,0c0.3,0.3,0.3,0.8,0,1.1c-6.4,6.9-12.4,11.8-12.5,11.8C29,56.4,28.8,56.4,28.6,56.4z"/>
		</g>
		<g>
			<path d="M56.5,42.1H34.8c-0.4,0-0.8-0.4-0.8-0.8c0-0.4,0.4-0.8,0.8-0.8h21.7c0.4,0,0.8,0.4,0.8,0.8
				C57.3,41.8,56.9,42.1,56.5,42.1z"/>
		</g>
		<g>
			<path d="M45.7,52.9c-0.4,0-0.8-0.4-0.8-0.8V30.6c0-0.4,0.4-0.8,0.8-0.8c0.4,0,0.8,0.4,0.8,0.8v21.5
				C46.4,52.5,46.1,52.9,45.7,52.9z"/>
		</g>
	</g>
</g>
</svg>
