<?xml version="1.0" encoding="utf-8"?>
<!-- Generator: Adobe Illustrator 23.0.1, SVG Export Plug-In . SVG Version: 6.00 Build 0)  -->
<svg version="1.1" xmlns="http://www.w3.org/2000/svg" xmlns:xlink="http://www.w3.org/1999/xlink" x="0px" y="0px"
	 viewBox="0 0 44.1 44" style="enable-background:new 0 0 44.1 44;" xml:space="preserve">
<style type="text/css">
	.st0{display:none;}
	.st1{display:inline;opacity:0.7;}
	.st2{fill:#D6EAF5;}
</style>
<g id="Bg" class="st0">
</g>
<g id="Object">
	<g>
		<path d="M33.7,21.5C40,12.8,42.9,4.8,44,2.2c0.2-0.4,0-0.9-0.4-1l0,0c-0.4-0.2-0.9,0-1,0.4c-2.3,5.3-16.5,38-40.1,39.9
			c-0.5,0-0.9-0.3-0.9-0.8V0.8C1.6,0.4,1.2,0,0.8,0l0,0C0.4,0,0,0.4,0,0.8v42.4C0,43.6,0.4,44,0.8,44h42.4c0.4,0,0.8-0.4,0.8-0.8
			l0,0c0-0.4-0.4-0.8-0.8-0.8H6.9C16.3,40.1,25.5,33,33.7,21.5z"/>
	</g>
</g>
</svg>
