<?xml version="1.0" encoding="utf-8"?>
<!-- Generator: Adobe Illustrator 23.0.1, SVG Export Plug-In . SVG Version: 6.00 Build 0)  -->
<svg version="1.1" xmlns="http://www.w3.org/2000/svg" xmlns:xlink="http://www.w3.org/1999/xlink" x="0px" y="0px"
	 viewBox="0 0 54.8 61.3" style="enable-background:new 0 0 54.8 61.3;" xml:space="preserve">
<style type="text/css">
	.st0{display:none;}
	.st1{display:inline;opacity:0.7;}
	.st2{fill:#D6EAF5;}
</style>
<g id="Bg" class="st0">
</g>
<g id="Object">
	<g>
		<path d="M21.7,32.1c-7.8,0-14.1-6.3-14.1-14.1C7.6,10.3,13.9,4,21.7,4c7.8,0,14.1,6.3,14.1,14.1C35.7,25.8,29.4,32.1,21.7,32.1z
			 M21.7,5.6c-6.9,0-12.5,5.6-12.5,12.5s5.6,12.5,12.5,12.5c6.9,0,12.5-5.6,12.5-12.5S28.5,5.6,21.7,5.6z"/>
		<path d="M39.3,61.3H4.7c-0.4,0-0.8-0.4-0.8-0.8V48.6c0-10,8.1-18.1,18.1-18.1s18.1,8.1,18.1,18.1v11.9
			C40.1,61,39.7,61.3,39.3,61.3z M5.5,59.7h33V48.6c0-9.1-7.4-16.5-16.5-16.5c-9.1,0-16.5,7.4-16.5,16.5V59.7z"/>
		<path d="M34.3,35.1c-3.4,0-6.6-1.3-9-3.7c-0.3-0.3-0.3-0.8,0-1.1c0.3-0.3,0.8-0.3,1.1,0c2.1,2.1,4.9,3.3,7.9,3.3
			c6.1,0,11.1-5,11.1-11.1s-5-11.1-11.1-11.1c-0.5,0-1.1,0-1.6,0.1c-0.4,0.1-0.8-0.2-0.9-0.7c-0.1-0.4,0.2-0.8,0.7-0.9
			c0.6-0.1,1.2-0.1,1.9-0.1c7,0,12.7,5.7,12.7,12.7S41.3,35.1,34.3,35.1z"/>
		<path d="M50.1,61.3H39.3c-0.4,0-0.8-0.4-0.8-0.8c0-0.4,0.4-0.8,0.8-0.8h10.1v-9.9c0-8.1-6.5-14.7-14.4-14.7
			c-0.8,0-1.6,0.1-2.4,0.2c-0.4,0.1-0.8-0.2-0.9-0.6c-0.1-0.4,0.2-0.8,0.6-0.9c0.9-0.2,1.8-0.2,2.7-0.2c8.8,0,16,7.3,16,16.3v10.7
			C50.9,61,50.6,61.3,50.1,61.3z"/>
	</g>
</g>
</svg>
